<svg width="353" height="334" viewBox="0 0 353 334" fill="none" xmlns="http://www.w3.org/2000/svg">
<path opacity="0.8" fill-rule="evenodd" clip-rule="evenodd" d="M-473.475 469.284C-473.377 469.453 -473.16 469.512 -472.991 469.414L82.3479 148.789C106.945 134.587 115.373 103.135 101.172 78.5372L-90.352 -253.192C-90.4499 -253.361 -90.6668 -253.419 -90.8365 -253.321C-91.0061 -253.223 -91.0642 -253.007 -90.9663 -252.837L100.557 78.8919C114.563 103.15 106.251 134.169 81.9932 148.174L-473.345 468.799C-473.515 468.897 -473.573 469.114 -473.475 469.284Z" fill="white"/>
<path opacity="0.65" fill-rule="evenodd" clip-rule="evenodd" d="M-454.747 505.978C-454.649 506.147 -454.432 506.205 -454.262 506.107L126.877 170.586C158.939 152.076 169.924 111.079 151.413 79.0171L-48.9771 -268.069C-49.0751 -268.239 -49.292 -268.297 -49.4616 -268.199C-49.6312 -268.101 -49.6894 -267.884 -49.5914 -267.715L150.799 79.3718C169.114 111.094 158.245 151.657 126.523 169.972L-454.617 505.493C-454.786 505.591 -454.845 505.808 -454.747 505.978Z" fill="white"/>
<path opacity="0.5" fill-rule="evenodd" clip-rule="evenodd" d="M-438.97 551.749C-438.872 551.918 -438.655 551.977 -438.486 551.879L180.741 194.368C218.91 172.331 231.987 123.525 209.951 85.3567L-4.27216 -285.688C-4.37011 -285.858 -4.58699 -285.916 -4.75666 -285.818C-4.92628 -285.72 -4.98443 -285.503 -4.88648 -285.333L209.336 85.7114C231.177 123.541 218.216 171.913 180.387 193.753L-438.84 551.264C-439.01 551.362 -439.068 551.579 -438.97 551.749Z" fill="white"/>
<path opacity="0.3" fill-rule="evenodd" clip-rule="evenodd" d="M-415.182 598.626C-415.084 598.795 -414.867 598.853 -414.698 598.756L243.845 218.546C287.442 193.375 302.38 137.628 277.209 94.0308L45.9618 -306.501C45.8639 -306.671 45.647 -306.729 45.4774 -306.631C45.3077 -306.533 45.2496 -306.316 45.3475 -306.146L276.595 94.3855C301.569 137.643 286.748 192.956 243.491 217.931L-415.052 598.141C-415.222 598.239 -415.28 598.456 -415.182 598.626Z" fill="white"/>
<path opacity="0.2" fill-rule="evenodd" clip-rule="evenodd" d="M-383.26 653.913C-383.162 654.083 -382.945 654.141 -382.776 654.043L332.284 241.203C377.238 215.249 392.64 157.766 366.686 112.812L108.484 -334.407C108.386 -334.577 108.169 -334.635 107.999 -334.537C107.83 -334.439 107.772 -334.222 107.87 -334.052L366.072 113.167C391.83 157.782 376.544 214.831 331.929 240.589L-383.131 653.429C-383.3 653.527 -383.358 653.744 -383.26 653.913Z" fill="white"/>
</svg>
